<?xml version="1.0" encoding="utf-8"?>
<!-- Generator: Adobe Illustrator 25.3.1, SVG Export Plug-In . SVG Version: 6.00 Build 0)  -->
<svg version="1.1" id="Layer_1" xmlns="http://www.w3.org/2000/svg" xmlns:xlink="http://www.w3.org/1999/xlink" x="0px" y="0px"
	 viewBox="0 0 734.1 572.8" style="enable-background:new 0 0 734.1 572.8;" xml:space="preserve">
<style type="text/css">
	.st0{fill:#996A0E;}
	.st1{fill:#002F58;}
</style>
<g>
	<circle class="st0" cx="365" cy="138.6" r="138.6"/>
	<path class="st0" d="M547.8,186.3C534,302.5,457.4,391.5,365,391.5c-92.4,0-169-88.9-182.9-205.2C218.1,260.2,286.5,310,365,310
		S511.8,260.2,547.8,186.3z"/>
	<g>
		<path class="st1" d="M25.9,445.6c-1.6-4-5.1-6.4-9.5-6.4c-5.4,0-9.2,3.6-9.2,8.6c0,4.8,2.3,6.7,12.8,10.9
			c8.1,3.3,10.9,6.4,10.9,12.4c0,8.9-7.8,15.7-18.1,15.7c-5,0-8.8-1.2-12.7-4c0.9-2.6,1.3-4.7,1.5-6.4h0.8c2.3,4.4,6.9,7.2,12,7.2
			c6.1,0,10.7-4.3,10.7-10.1c0-4.8-2.3-7.1-10.1-10.1c-4.4-1.8-6.8-2.9-8.7-4.3c-3.3-2.3-4.8-5.4-4.8-9.4c0-7.8,6.5-13.3,15.8-13.3
			c4.5,0,7.8,0.9,11.7,3.4c-1,2.1-1.7,4-2,5.8H25.9z"/>
		<path class="st1" d="M65.4,486c-4.9-0.2-9.2-0.2-13.1-0.2c-4.7,0-9.9,0.2-13,0.3c0.6-6.6,0.9-14,0.9-27.6c0-10.4-0.2-16.1-0.5-21
			c3.3,0.2,7.1,0.3,15.1,0.3c6,0,8.9-0.1,11.6-0.3c-0.2,1-0.2,1.4-0.2,1.9s0.1,1,0.2,2.2c-5.4-0.5-9.5-0.7-15.2-0.7
			c-0.9,0-2.3,0-4.3,0.1c-0.4,8-0.4,9.3-0.5,17.8c2.3,0.1,4.1,0.1,5.3,0.1c4.4,0,9.2-0.2,13-0.7c-0.2,1.1-0.2,1.8-0.2,2.4
			s0.1,1.2,0.2,1.9c-3.6-0.4-8.7-0.6-12.8-0.6l-5.4,0.1v4.9c0,4.5,0,7.5,0.2,15.8c1.9,0.1,3.5,0.1,4.4,0.1c6.3,0,11.4-0.3,15.8-0.9
			c-0.2,0.8-0.2,1.4-0.2,2.1s0.1,1.3,0.2,2.2L65.4,486z"/>
		<path class="st1" d="M80.7,459.8c1.1-0.2,1.6-0.4,3-1.7c5.4-4.7,12.1-11.3,21.1-20.7c1.2,0.2,1.8,0.3,2.8,0.3s1.9-0.1,3.6-0.3
			c-11.6,10.2-13.3,11.8-23.8,21.7l25.1,26.9c-2.8-0.2-3.6-0.3-4.4-0.3c-0.9,0-1.6,0.1-4.4,0.3l-2.3-2.7
			c-11.7-13.7-19.4-22-20.7-22.2l0.1,2.9c0.2,14.1,0.3,17.7,0.8,22c-1.6-0.2-2.9-0.3-4-0.3s-2.3,0.2-3.5,0.3c0.5-6,0.7-14,0.7-24.4
			v-8.5c0-4-0.5-13.8-0.7-15.8c1.6,0.2,2.6,0.3,4,0.3c1.5,0,2.4-0.1,3.5-0.3c-0.5,4.3-0.8,10.6-0.9,18.8V459.8z"/>
		<path class="st1" d="M144.6,486c-4.9-0.2-9.2-0.2-13.1-0.2c-4.7,0-9.9,0.2-13,0.3c0.6-6.6,0.9-14,0.9-27.6c0-10.4-0.2-16.1-0.5-21
			c3.3,0.2,7.1,0.3,15.1,0.3c6,0,8.9-0.1,11.6-0.3c-0.2,1-0.2,1.4-0.2,1.9s0.1,1,0.2,2.2c-5.4-0.5-9.5-0.7-15.2-0.7
			c-0.9,0-2.3,0-4.3,0.1c-0.4,8-0.4,9.3-0.5,17.8c2.3,0.1,4.1,0.1,5.3,0.1c4.4,0,9.2-0.2,13-0.7c-0.2,1.1-0.2,1.8-0.2,2.4
			s0.1,1.2,0.2,1.9c-3.6-0.4-8.7-0.6-12.8-0.6l-5.4,0.1v4.9c0,4.5,0,7.5,0.2,15.8c1.9,0.1,3.5,0.1,4.4,0.1c6.3,0,11.4-0.3,15.8-0.9
			c-0.2,0.8-0.2,1.4-0.2,2.1s0.1,1.3,0.2,2.2L144.6,486z"/>
		<path class="st1" d="M160.2,436.4c10.8,20.4,12.9,24.2,21.3,38.6l22.4-38.6h1l1.9,17.5c2.2,19.6,3.1,26.8,4.1,32.1
			c-1.5-0.2-2.9-0.3-3.6-0.3c-0.7,0-2.1,0.2-3.6,0.3c-0.2-7.3-1-16.5-3.4-35.3l-0.2-1.5c-8.6,14.7-17.9,31.6-19.7,36h-0.6
			c-2.3-4.8-14.2-26.6-18.7-34.2l-0.6-1.2c-1.9,12.4-3.7,30.7-3.7,36.2c-1.2-0.2-2.3-0.3-2.8-0.3c-0.5,0-1.6,0.2-2.6,0.3
			c1.6-7.1,4.1-24.2,7.5-49.7H160.2z"/>
		<path class="st1" d="M248.3,486c-3.3-0.2-5.4-0.2-6-0.2c-1.8,0-3.3,0.1-5.5,0.3c0.4-3.4,0.8-14.7,0.8-25.7
			c0-9.9-0.2-16.8-0.8-22.9c1.8,0.2,3.5,0.2,6,0.2c1.7,0,4.1-0.1,7.7-0.2c4-0.1,5.7-0.2,7.8-0.2c9.4,0,14.8,1.6,19.3,5.8
			c4.3,4,6.6,9.9,6.6,16.8c0,9.1-3.9,16.9-10.8,21.5c-4.7,3.2-10.5,4.6-19.1,4.6L248.3,486z M251.8,483.4c9.5,0,15.1-1.6,19-5.7
			c3.8-3.9,5.8-9.7,5.8-16.8c0-8.8-3-15.2-8.7-18.3c-3.1-1.6-7.3-2.3-14.4-2.3c-3.6,0-6.6,0.2-9.6,0.5c-0.2,4.8-0.4,10.8-0.4,21.7
			c0,9.9,0.2,15.5,0.5,20.5C246.8,483.3,248.9,483.4,251.8,483.4z"/>
		<path class="st1" d="M318.8,486c-4.9-0.2-9.2-0.2-13.1-0.2c-4.7,0-9.9,0.2-13,0.3c0.6-6.6,0.9-14,0.9-27.6c0-10.4-0.2-16.1-0.5-21
			c3.3,0.2,7.1,0.3,15.1,0.3c6,0,8.9-0.1,11.6-0.3c-0.2,1-0.2,1.4-0.2,1.9s0.1,1,0.2,2.2c-5.4-0.5-9.5-0.7-15.2-0.7
			c-0.9,0-2.3,0-4.3,0.1c-0.4,8-0.4,9.3-0.5,17.8c2.3,0.1,4.1,0.1,5.3,0.1c4.4,0,9.2-0.2,13-0.7c-0.2,1.1-0.2,1.8-0.2,2.4
			s0.1,1.2,0.2,1.9c-3.6-0.4-8.7-0.6-12.8-0.6l-5.4,0.1v4.9c0,4.5,0,7.5,0.2,15.8c1.9,0.1,3.5,0.1,4.4,0.1c6.3,0,11.4-0.3,15.8-0.9
			c-0.2,0.8-0.2,1.4-0.2,2.1s0.1,1.3,0.2,2.2L318.8,486z"/>
		<path class="st1" d="M322,437.4c1.6,0.2,2.6,0.3,4,0.3s2.4-0.1,3.7-0.3c6.4,17.2,9.2,23.8,16.9,41.2c6.3-14,14.4-33.9,16.7-41.2
			c1.4,0.2,2,0.3,2.8,0.3s1.4-0.1,2.7-0.3c-9.4,20.1-19.2,42.4-21.5,48.7c-0.9-0.2-1.7-0.3-2.2-0.3c-0.5,0-1.3,0.2-2.3,0.3
			c-6-14.6-6.1-14.9-13.6-31.9L322,437.4z"/>
		<path class="st1" d="M399.7,486c-4.9-0.2-9.2-0.2-13.1-0.2c-4.7,0-9.9,0.2-13,0.3c0.6-6.6,0.9-14,0.9-27.6c0-10.4-0.2-16.1-0.5-21
			c3.3,0.2,7.1,0.3,15.1,0.3c6,0,8.9-0.1,11.6-0.3c-0.2,1-0.2,1.4-0.2,1.9s0.1,1,0.2,2.2c-5.4-0.5-9.5-0.7-15.2-0.7
			c-0.9,0-2.3,0-4.3,0.1c-0.4,8-0.4,9.3-0.5,17.8c2.3,0.1,4.1,0.1,5.3,0.1c4.4,0,9.2-0.2,13-0.7c-0.2,1.1-0.2,1.8-0.2,2.4
			s0.1,1.2,0.2,1.9c-3.6-0.4-8.7-0.6-12.8-0.6l-5.4,0.1v4.9c0,4.5,0,7.5,0.2,15.8c1.9,0.1,3.5,0.1,4.4,0.1c6.3,0,11.4-0.3,15.8-0.9
			c-0.2,0.8-0.2,1.4-0.2,2.1s0.1,1.3,0.2,2.2L399.7,486z"/>
		<path class="st1" d="M412.4,437.7c1.3,0,2.2-0.1,3.5-0.3c-0.5,7.4-0.8,14.9-0.8,25.7c0,7.4,0.1,10.9,0.5,19.6
			c2,0.1,3.6,0.1,4.6,0.1c5.4,0,10.9-0.4,15.8-1.2c-0.2,0.9-0.3,1.7-0.3,2.4s0.1,1.3,0.3,2c-4-0.2-8.8-0.3-14.1-0.3
			c-4.4,0-7.2,0.1-13.5,0.3c0.5-5.8,0.7-11.7,0.7-22.4c0-12.2-0.2-18.6-0.7-26.2C409.9,437.6,411,437.7,412.4,437.7z"/>
		<path class="st1" d="M495.3,461.8c0,5.2-1.2,9.6-3.6,13.5c-4.7,7.7-13,11.6-24.8,11.6c-17.2,0-27.9-9.7-27.9-25.2
			c0-15.6,10.7-25.2,28.2-25.2S495.3,446,495.3,461.8z M454.4,442.7c-5.3,4-7.9,10.2-7.9,19.1c0,8.1,2.4,14.3,7.1,18.2
			c3.6,2.9,8.3,4.6,13.5,4.6c5,0,9.3-1.3,12.8-3.9c5.3-4,7.9-10.2,7.9-18.9c0-14.5-7.7-23-20.9-23
			C462.1,438.7,457.9,440.1,454.4,442.7z"/>
		<path class="st1" d="M510.5,465c0,10.3,0.2,16.7,0.8,21.1c-1.8-0.2-2.6-0.3-4-0.3c-1.2,0-2,0.1-3.6,0.3c0.5-7,0.8-14.4,0.8-25.8
			c0-10.6-0.2-16.9-0.8-22.8c2.1,0.2,3.9,0.3,6.1,0.3c1.3,0,2.4,0,4.5-0.1c2.5-0.2,4.3-0.2,5.4-0.2c11.8,0,17.3,3.9,17.3,12
			c0,4.6-2.2,8.6-6.1,11.1c-3.3,2.2-8.3,3.3-14.9,3.3c-1.1,0-2.7,0-5.5-0.1V465z M510.5,461.1c2.1,0.2,3,0.2,4.3,0.2
			c10.1,0,15.4-4,15.4-11.6c0-6.5-4.3-9.7-12.8-9.7c-2.2,0-4.1,0.2-6.4,0.5c-0.4,5.2-0.6,11-0.6,15.4l0.1,1.8V461.1z"/>
		<path class="st1" d="M550.9,436.4c10.8,20.4,12.9,24.2,21.3,38.6l22.4-38.6h1l1.9,17.5c2.2,19.6,3.1,26.8,4.1,32.1
			c-1.5-0.2-2.9-0.3-3.6-0.3c-0.7,0-2.1,0.2-3.6,0.3c-0.2-7.3-1-16.5-3.4-35.3l-0.2-1.5c-8.6,14.7-17.9,31.6-19.7,36h-0.6
			c-2.3-4.8-14.2-26.6-18.7-34.2l-0.6-1.2c-1.9,12.4-3.7,30.7-3.7,36.2c-1.2-0.2-2.2-0.3-2.8-0.3c-0.5,0-1.6,0.2-2.6,0.3
			c1.6-7.1,4.1-24.2,7.5-49.7H550.9z"/>
		<path class="st1" d="M636.8,486c-4.9-0.2-9.2-0.2-13.1-0.2c-4.7,0-9.9,0.2-13,0.3c0.6-6.6,0.9-14,0.9-27.6c0-10.4-0.2-16.1-0.5-21
			c3.3,0.2,7.1,0.3,15.1,0.3c6,0,8.9-0.1,11.6-0.3c-0.2,1-0.2,1.4-0.2,1.9s0.1,1,0.2,2.2c-5.4-0.5-9.5-0.7-15.2-0.7
			c-0.9,0-2.3,0-4.3,0.1c-0.4,8-0.4,9.3-0.5,17.8c2.3,0.1,4.1,0.1,5.3,0.1c4.4,0,9.2-0.2,13-0.7c-0.2,1.1-0.2,1.8-0.2,2.4
			s0.1,1.2,0.2,1.9c-3.6-0.4-8.7-0.6-12.8-0.6l-5.4,0.1v4.9c0,4.5,0,7.5,0.2,15.8c1.9,0.1,3.5,0.1,4.4,0.1c6.3,0,11.4-0.3,15.8-0.9
			c-0.2,0.8-0.2,1.4-0.2,2.1s0.1,1.3,0.2,2.2L636.8,486z"/>
		<path class="st1" d="M648,436.4c19.9,20.5,25.6,26.2,37.5,37.8c0.2-8.2,0.2-12.1,0.2-17.2c0-8.6-0.2-14.9-0.5-19.6
			c0.9,0.2,2,0.2,2.6,0.2c0.7,0,1.7-0.1,2.6-0.2c-1,8.5-1.4,18.5-1.4,35.8c0,5.4,0.1,7.8,0.2,13.7H688c-5.7-6.7-9.4-10.5-37.8-39
			l-0.1,13c-0.1,2.3-0.1,4.3-0.1,5.7c0,7.9,0.2,13.9,0.7,19.4c-1-0.2-1.9-0.2-2.8-0.2c-0.8,0-1.5,0-2.6,0.2c0.5-2.9,0.8-8.9,1.2-25
			l0.2-8.5v-4l-0.1-12H648z"/>
		<path class="st1" d="M718.4,441.1c-0.4,7.4-0.5,10.7-0.5,19.9c0,13,0.2,20.3,0.7,25.1c-1.7-0.2-2.8-0.3-3.9-0.3s-2.2,0.1-3.6,0.3
			c0.5-4.3,0.9-12.5,0.9-24.1c0-7.7-0.1-11.6-0.4-20.8h-1.2c-7.1,0.2-10.6,0.4-15.1,0.9c0.2-0.8,0.3-1.5,0.3-2.1s-0.1-1.4-0.3-2.5
			c7.4,0.4,10.7,0.5,18.8,0.5c8.5,0,12.2-0.1,20.1-0.5c-0.3,1-0.4,1.6-0.4,2.3s0.1,1.5,0.3,2.3c-3.8-0.5-5.9-0.7-13-0.9H718.4z"/>
		<path class="st1" d="M135.7,549.2c0,10.5,0.2,21,0.5,22.9c-1.6-0.2-2.6-0.3-3.6-0.3c-1,0-2.2,0.1-3.8,0.3
			c0.6-6.8,0.9-15.8,0.9-28.9c0-9-0.2-13.8-0.6-19.7c2.6,0.2,7.4,0.3,13.8,0.3c6.1,0,10.6-0.1,12.8-0.3c-0.2,1.1-0.2,1.6-0.2,2.1
			c0,0.5,0.1,1,0.2,2.1c-5-0.5-10.4-0.7-14.6-0.7c-1.1,0-2.7,0-4.9,0.1c-0.3,5.6-0.5,13.2-0.5,17.8c1.6,0.1,2.3,0.1,3.8,0.1
			c5.9,0,10.3-0.2,14.4-0.7c-0.2,1.1-0.2,1.8-0.2,2.4s0.1,1.2,0.2,1.9c-4.7-0.5-8.8-0.6-14.9-0.6c-1.2,0-1.8,0-3.3,0.1V549.2z"/>
		<path class="st1" d="M216.1,547.8c0,5.2-1.2,9.6-3.6,13.5c-4.7,7.7-13,11.6-24.8,11.6c-17.2,0-27.9-9.7-27.9-25.2
			c0-15.6,10.7-25.2,28.2-25.2S216.1,532,216.1,547.8z M175.2,528.7c-5.3,4-7.9,10.2-7.9,19.1c0,8.1,2.4,14.3,7.1,18.2
			c3.6,2.9,8.3,4.6,13.5,4.6c5,0,9.3-1.3,12.8-3.9c5.3-4,7.9-10.2,7.9-18.9c0-14.5-7.7-23-20.9-23
			C182.9,524.7,178.6,526.1,175.2,528.7z"/>
		<path class="st1" d="M228.2,523.7c1.2,0,2.2-0.1,3.8-0.3c-0.8,7.3-1.1,14.6-1.1,24.3c0,7.1,0.3,10.3,1.3,13
			c2.3,5.7,7.5,8.8,15.1,8.8c6.8,0,11.9-2.7,14.4-7.8c1.6-3.4,2.1-7.9,2.1-21c0-7.6-0.2-12.6-0.5-17.4c1.6,0.2,2.3,0.3,3,0.3
			c0.8,0,1.3-0.1,2.5-0.3c-0.5,4.3-1.2,16-1.2,21.4c-0.2,11.3-0.6,14.2-2.3,17.8c-3.2,6.7-10,10.2-19.8,10.2
			c-8.2,0-14.8-2.7-18.2-7.5c-1.9-2.8-2.8-6.3-2.8-11.7c0-1.2,0.1-4,0.2-8.4c0.2-4,0.2-7.2,0.2-9.4c0-4.6-0.2-8.7-0.4-12.4
			C226.1,523.6,227.1,523.7,228.2,523.7z"/>
		<path class="st1" d="M281.5,522.4c19.9,20.5,25.6,26.2,37.5,37.8c0.2-8.2,0.2-12.1,0.2-17.2c0-8.6-0.2-14.9-0.5-19.6
			c0.9,0.2,2,0.2,2.6,0.2c0.7,0,1.7-0.1,2.6-0.2c-1,8.5-1.4,18.5-1.4,35.8c0,5.4,0.1,7.8,0.2,13.7h-1.2c-5.7-6.7-9.4-10.5-37.8-39
			l-0.1,13c-0.1,2.3-0.1,4.3-0.1,5.7c0,7.9,0.2,13.9,0.7,19.4c-1-0.2-1.9-0.2-2.8-0.2c-0.8,0-1.5,0-2.6,0.2c0.5-2.9,0.8-8.9,1.2-25
			l0.2-8.5v-4l-0.1-12H281.5z"/>
		<path class="st1" d="M346.1,572c-3.3-0.2-5.4-0.2-6-0.2c-1.8,0-3.3,0.1-5.5,0.3c0.4-3.4,0.8-14.7,0.8-25.7
			c0-9.9-0.2-16.8-0.8-22.9c1.8,0.2,3.5,0.2,6,0.2c1.7,0,4.1-0.1,7.7-0.2c4-0.1,5.7-0.2,7.8-0.2c9.4,0,14.8,1.6,19.3,5.8
			c4.3,4,6.6,9.9,6.6,16.8c0,9.1-3.9,16.9-10.8,21.5c-4.7,3.2-10.5,4.6-19.1,4.6L346.1,572z M349.6,569.4c9.5,0,15.1-1.6,19-5.7
			c3.8-3.9,5.8-9.7,5.8-16.8c0-8.8-3-15.2-8.7-18.3c-3.1-1.6-7.3-2.3-14.4-2.3c-3.6,0-6.6,0.2-9.6,0.5c-0.2,4.8-0.4,10.8-0.4,21.7
			c0,9.9,0.2,15.5,0.5,20.5C344.6,569.3,346.7,569.4,349.6,569.4z"/>
		<path class="st1" d="M421.2,547.5c4.6,10.2,9.3,20.6,11.3,24.6c-1.4-0.2-2.7-0.3-4-0.3c-1.2,0-2.5,0.2-3.7,0.3
			c-2.1-5.8-3.5-9.2-7.8-19c-4.4-0.1-6.4-0.1-9.1-0.1c-3,0-5.3,0-10.1,0.1c-4.2,9.8-5.6,13.3-7.5,19c-1.2-0.2-1.9-0.3-2.6-0.3
			c-0.7,0-1.7,0.2-2.9,0.3c2.4-4.4,3.8-7.4,23.7-49.4c0.4,0.1,0.5,0.1,0.7,0.1c0.2,0,0.4,0,0.8-0.1L421.2,547.5z M399.2,550
			c2.3,0.1,5.7,0.2,9,0.2c2.6,0,4,0,7.5-0.2l-8.1-18.2L399.2,550z"/>
		<path class="st1" d="M455.5,527.1c-0.4,7.4-0.5,10.7-0.5,19.9c0,13,0.2,20.3,0.7,25.1c-1.7-0.2-2.8-0.3-3.9-0.3
			c-1.1,0-2.2,0.1-3.6,0.3c0.5-4.3,0.9-12.5,0.9-24.1c0-7.7-0.1-11.6-0.4-20.8h-1.2c-7.1,0.2-10.6,0.4-15.1,0.9
			c0.2-0.8,0.3-1.5,0.3-2.1s-0.1-1.4-0.3-2.5c7.4,0.4,10.7,0.5,18.8,0.5c8.5,0,12.2-0.1,20.1-0.5c-0.3,1-0.4,1.6-0.4,2.3
			s0.1,1.5,0.3,2.3c-3.8-0.5-5.9-0.7-13-0.9H455.5z"/>
		<path class="st1" d="M479.8,523.7c1.3,0,2.3-0.1,3.7-0.3c-0.5,6.4-0.7,12.6-0.7,23.7c0,11.1,0.2,18.2,0.8,24.9
			c-1.7-0.2-2.8-0.3-3.9-0.3s-2.2,0.1-3.6,0.3c0.5-7.1,0.7-14.5,0.7-26.5c0-10.2-0.2-15.8-0.7-22.2
			C477.5,523.6,478.5,523.7,479.8,523.7z"/>
		<path class="st1" d="M548.3,547.8c0,5.2-1.2,9.6-3.6,13.5c-4.7,7.7-13,11.6-24.8,11.6c-17.2,0-27.9-9.7-27.9-25.2
			c0-15.6,10.7-25.2,28.2-25.2S548.3,532,548.3,547.8z M507.4,528.7c-5.3,4-7.9,10.2-7.9,19.1c0,8.1,2.4,14.3,7.1,18.2
			c3.6,2.9,8.3,4.6,13.5,4.6c5,0,9.3-1.3,12.8-3.9c5.3-4,7.9-10.2,7.9-18.9c0-14.5-7.7-23-20.9-23
			C515.1,524.7,510.9,526.1,507.4,528.7z"/>
		<path class="st1" d="M559.4,522.4c19.9,20.5,25.6,26.2,37.5,37.8c0.2-8.2,0.2-12.1,0.2-17.2c0-8.6-0.2-14.9-0.5-19.6
			c0.9,0.2,2,0.2,2.6,0.2c0.7,0,1.7-0.1,2.6-0.2c-1,8.5-1.4,18.5-1.4,35.8c0,5.4,0.1,7.8,0.2,13.7h-1.2c-5.7-6.7-9.4-10.5-37.8-39
			l-0.1,13c-0.1,2.3-0.1,4.3-0.1,5.7c0,7.9,0.2,13.9,0.7,19.4c-1-0.2-1.9-0.2-2.8-0.2c-0.8,0-1.5,0-2.6,0.2c0.5-2.9,0.8-8.9,1.2-25
			l0.2-8.5v-4l-0.1-12H559.4z"/>
	</g>
</g>
</svg>
